<svg width="55" height="38" viewBox="0 0 55 38" fill="none" xmlns="http://www.w3.org/2000/svg">
<path d="M27.5 5C32.0968 4.98472 36.6047 6.26696 40.5053 8.69932C44.4059 11.1317 47.541 14.6154 49.55 18.75C45.425 27.175 37 32.5 27.5 32.5C18 32.5 9.575 27.175 5.45 18.75C7.45904 14.6154 10.5941 11.1317 14.4947 8.69932C18.3953 6.26696 22.9032 4.98472 27.5 5ZM27.5 0C15 0 4.325 7.775 0 18.75C4.325 29.725 15 37.5 27.5 37.5C40 37.5 50.675 29.725 55 18.75C50.675 7.775 40 0 27.5 0ZM27.5 12.5C29.1576 12.5 30.7473 13.1585 31.9194 14.3306C33.0915 15.5027 33.75 17.0924 33.75 18.75C33.75 20.4076 33.0915 21.9973 31.9194 23.1694C30.7473 24.3415 29.1576 25 27.5 25C25.8424 25 24.2527 24.3415 23.0806 23.1694C21.9085 21.9973 21.25 20.4076 21.25 18.75C21.25 17.0924 21.9085 15.5027 23.0806 14.3306C24.2527 13.1585 25.8424 12.5 27.5 12.5ZM27.5 7.5C21.3 7.5 16.25 12.55 16.25 18.75C16.25 24.95 21.3 30 27.5 30C33.7 30 38.75 24.95 38.75 18.75C38.75 12.55 33.7 7.5 27.5 7.5Z" fill="white"/>
</svg>
