<svg width="12" height="10" viewBox="0 0 12 10" fill="none" xmlns="http://www.w3.org/2000/svg">
<path fill-rule="evenodd" clip-rule="evenodd" d="M0 0.875C0 0.391751 0.391751 0 0.875 0H11.125C11.6082 0 12 0.391751 12 0.875C12 1.35825 11.6082 1.75 11.125 1.75H0.875C0.391751 1.75 0 1.35825 0 0.875Z" fill="white"/>
<path fill-rule="evenodd" clip-rule="evenodd" d="M0 4.625C0 4.14175 0.391751 3.75 0.875 3.75H11.125C11.6082 3.75 12 4.14175 12 4.625C12 5.10825 11.6082 5.5 11.125 5.5H0.875C0.391751 5.5 0 5.10825 0 4.625Z" fill="#FFC93F"/>
<path fill-rule="evenodd" clip-rule="evenodd" d="M0 8.375C0 7.89175 0.391751 7.5 0.875 7.5H11.125C11.6082 7.5 12 7.89175 12 8.375C12 8.85825 11.6082 9.25 11.125 9.25H0.875C0.391751 9.25 0 8.85825 0 8.375Z" fill="white"/>
</svg>
