<svg width="60" height="60" viewBox="0 0 60 60" fill="none" xmlns="http://www.w3.org/2000/svg">
<path d="M30.25 45.875L30 46.125L29.725 45.875C17.85 35.1 10 27.975 10 20.75C10 15.75 13.75 12 18.75 12C22.6 12 26.35 14.5 27.675 17.9H32.325C33.65 14.5 37.4 12 41.25 12C46.25 12 50 15.75 50 20.75C50 27.975 42.15 35.1 30.25 45.875ZM41.25 7C36.9 7 32.725 9.025 30 12.2C27.275 9.025 23.1 7 18.75 7C11.05 7 5 13.025 5 20.75C5 30.175 13.5 37.9 26.375 49.575L30 52.875L33.625 49.575C46.5 37.9 55 30.175 55 20.75C55 13.025 48.95 7 41.25 7Z" fill="white"/>
</svg>
