<svg width="306" height="65" viewBox="0 0 306 65" fill="none" xmlns="http://www.w3.org/2000/svg">
<path d="M45.85 1.35H66.73V26.64H73.21L85.18 1.35H105.97V5.4L91.75 32.04L108.04 59.22V63.27H86.17L72.85 38.7H66.73V63.27H45.85V1.35Z" fill="white"/>
<path d="M122.944 1.35H143.734V63.27H122.944V1.35Z" fill="white"/>
<path d="M163.564 1.35H181.654L206.314 34.74V1.35H222.424V63.27H204.424L179.584 31.05V63.27H163.564V1.35Z" fill="white"/>
<path d="M272.3 64.71C265.82 64.71 260.06 63.33 255.02 60.57C250.04 57.81 246.14 54 243.32 49.14C240.56 44.22 239.18 38.64 239.18 32.4C239.18 26.1 240.56 20.49 243.32 15.57C246.14 10.65 250.04 6.84 255.02 4.14C260.06 1.38 265.82 0 272.3 0C278.78 0 284.51 1.38 289.49 4.14C294.53 6.84 298.43 10.65 301.19 15.57C304.01 20.43 305.42 26.04 305.42 32.4C305.42 38.64 304.01 44.22 301.19 49.14C298.43 54 294.53 57.81 289.49 60.57C284.45 63.33 278.72 64.71 272.3 64.71ZM272.3 48.33C276.08 48.33 279.17 46.86 281.57 43.92C284.03 40.98 285.26 37.11 285.26 32.31C285.26 29.13 284.69 26.31 283.55 23.85C282.47 21.33 280.94 19.38 278.96 18C276.98 16.56 274.73 15.84 272.21 15.84C269.75 15.84 267.53 16.56 265.55 18C263.57 19.38 262.04 21.33 260.96 23.85C259.88 26.31 259.34 29.13 259.34 32.31C259.34 37.11 260.54 40.98 262.94 43.92C265.34 46.86 268.46 48.33 272.3 48.33Z" fill="white"/>
<path d="M0 1.27H24V17.6336H0V1.27Z" fill="white"/>
<path d="M0 24.6336H24V40.9973H0V24.6336Z" fill="#FFC93F"/>
<path d="M0 47.9973H24V64.3609H0V47.9973Z" fill="white"/>
</svg>
